# xmcd
#
# Track frame offsets:
#	150
#	10932
#	22354
#	33547
#	44729
#	55578
#	68233
#	80471
#	90920
#	99943
#	109986
#	121231
#	133251
#	144704
#	157281
#	170409
#	182075
#	191613
#	203362
#	211896
#	223609
#	235395
#	245750
#	255788
#	273167
#
# Disc length: 3762 seconds
#
# Revision: 0
# Processed by: cddbd v1.5.2PL0 Copyright (c) Steve Scherf et al.
# Submitted via: audiograbber 1.83.01
#
DISCID=690eb019
DTITLE=Various Artist - Windy City Rockers Volume 4
DYEAR=1900
DGENRE=
TTITLE0=Sticks McGhee - Head Happy With Wine
TTITLE1=Jimmy Binkley and His Combo - Wine Wine Wine
TTITLE2=Jackie Brenston - Hi Ho Baby
TTITLE3=Sultans - Lemmon Squeezing Daddy
TTITLE4=Sticks McGhee - Wiggle Waggle Woo
TTITLE5=Hank Ballard and The Midnighters - Tore Up
TTITLE6=Champion Jack Dupree - Shake Baby Shake
TTITLE7=Mabel Scott - Boogie Woogie Santa Claus
TTITLE8=Fletcher Smith - Brand New Neighborhood
TTITLE9=Orients - Shouldnt I
TTITLE10=Al Jackson - It Aint Gonna Be Like That
TTITLE11=Fingers Carr - Sunset Boogie
TTITLE12=Big Duke Henderson - Baby Beat It
TTITLE13=Rudy Moore - Step It Up And Go
TTITLE14=J T Brown - Windy City Boogie
TTITLE15=Redd Foxx - Lets Wiggle A Little Woogie
TTITLE16=Bobby Slaton - Chi Town Boogie
TTITLE17=Joe Turner - Wine O Baby Boogie
TTITLE18=Roddy Jackson - Moose On The Loose
TTITLE19=Big Joe Duskin - Dont Mess With The Boogieman
TTITLE20=Smiley Lewis - Real Gone Lover
TTITLE21=Colts - Honey Bun
TTITLE22=Jackson Bros - We're Gonna Rock This Joint
TTITLE23=Eddie Clearwater - 2x9
TTITLE24=Reverberations - Teenage Hayride Part 2
EXTD=
EXTT0=
EXTT1=
EXTT2=
EXTT3=
EXTT4=
EXTT5=
EXTT6=
EXTT7=
EXTT8=
EXTT9=
EXTT10=
EXTT11=
EXTT12=
EXTT13=
EXTT14=
EXTT15=
EXTT16=
EXTT17=
EXTT18=
EXTT19=
EXTT20=
EXTT21=
EXTT22=
EXTT23=
EXTT24=
PLAYORDER=
